<?xml version="1.0" encoding="UTF-8" standalone="no"?>
<svg width="155px" height="150px" viewBox="0 0 155 150" version="1.1" xmlns="http://www.w3.org/2000/svg" xmlns:xlink="http://www.w3.org/1999/xlink" xmlns:sketch="http://www.bohemiancoding.com/sketch/ns">
    <!-- Generator: Sketch 3.4.3 (16044) - http://www.bohemiancoding.com/sketch -->
    <title>Imported Layers</title>
    <desc>Created with Sketch.</desc>
    <defs></defs>
    <g id="Welcome" stroke="none" stroke-width="1" fill="none" fill-rule="evenodd" sketch:type="MSPage">
        <g id="4" sketch:type="MSArtboardGroup" transform="translate(-917.000000, -209.000000)">
            <g id="到府收送-+-人身穿著：-+-Imported-Layers" sketch:type="MSLayerGroup" transform="translate(769.500000, 213.000000)">
                <g id="Imported-Layers" transform="translate(151.000000, 0.000000)" sketch:type="MSShapeGroup">
                    <path d="M0.91575,72.7352758 L73.5530112,0.0435602293 L147.044578,72.7352758 L0.91575,72.7352758 Z M17.8594889,74.1478604 L73.5722389,23.8472125 L130.026839,74.1478604 L130.026839,128.105305 C130.026839,128.105305 128.339639,139.081755 124.123489,140.909144 C119.907339,142.738552 22.0774889,140.909144 22.0774889,140.909144 C22.0774889,140.909144 17.8594889,134.31237 17.8594889,128.105305 L17.8594889,74.1478604 L17.8594889,74.1478604 Z M36.3998463,141.722214 L36.3998463,86.9227564 L64.8084463,86.9227564 L64.8084463,141.550581 L36.3998463,141.722214 L36.3998463,141.722214 Z M82.6146963,114.323495 L108.479546,114.323495 L108.479546,86.9247756 L82.6146963,86.9247756 L82.6146963,114.323495 Z" id="Stroke-1" stroke="#3A807B" stroke-width="7" stroke-linecap="round" stroke-linejoin="round"></path>
                    <path d="M58.0796537,113.635946 C58.0796537,115.814798 56.4630017,117.582218 54.4667417,117.582218 C52.4704818,117.582218 50.8538297,115.814798 50.8538297,113.635946 C50.8538297,111.457094 52.4704818,109.692571 54.4667417,109.692571 C56.4630017,109.692571 58.0796537,111.457094 58.0796537,113.635946" id="Fill-2" fill="#3A807B"></path>
                    <path d="M118.948148,14.5010386 L118.948148,39.3053558" id="Stroke-3" stroke="#3A807B" stroke-width="9" stroke-linecap="round"></path>
                </g>
            </g>
        </g>
    </g>
</svg>