<?xml version="1.0" encoding="UTF-8" standalone="no"?>
<svg width="143px" height="142px" viewBox="0 0 143 142" version="1.1" xmlns="http://www.w3.org/2000/svg" xmlns:xlink="http://www.w3.org/1999/xlink" xmlns:sketch="http://www.bohemiancoding.com/sketch/ns">
    <!-- Generator: Sketch 3.4.3 (16044) - http://www.bohemiancoding.com/sketch -->
    <title>Imported Layers</title>
    <desc>Created with Sketch.</desc>
    <defs></defs>
    <g id="Welcome" stroke="none" stroke-width="1" fill="none" fill-rule="evenodd" sketch:type="MSPage">
        <g id="4" sketch:type="MSArtboardGroup" transform="translate(-378.000000, -212.000000)">
            <g id="超商洗衣-+-服務據點：-+-Imported-Layers" sketch:type="MSLayerGroup" transform="translate(223.500000, 215.000000)">
                <g id="Imported-Layers" transform="translate(157.972230, 0.000000)" sketch:type="MSShapeGroup">
                    <path d="M18.3029553,0.558564737 L118.557434,0.558564737 C118.557434,0.558564737 134.493288,44.9993716 134.493288,53.5368785 C134.493288,62.0743853 136.038454,69.0603235 127.546791,71.3876765 C119.055128,73.7169691 6.34286665,71.3876765 6.34286665,71.3876765 C6.34286665,71.3876765 -2.15072537,61.298601 0.937678175,51.2075859 C4.02608172,41.1185104 18.3029553,0.558564737 18.3029553,0.558564737 L18.3029553,0.558564737 Z M12.5177447,72.4233487 L12.5177447,122.616597 L20.237789,132.705672 L116.738343,132.705672 C116.738343,132.705672 123.686769,126.497458 123.686769,123.392381 L123.686769,72.4233487 L12.5177447,72.4233487 L12.5177447,72.4233487 Z M56.5212258,72.4233487 L56.5212258,132.705672 L56.5212258,72.4233487 Z" id="Stroke-1" stroke="#3A807B" stroke-width="7" stroke-linejoin="round"></path>
                    <path d="M30.0604941,100.617292 C30.0604941,103.119196 28.2278999,105.145933 25.9651283,105.145933 C23.7042857,105.145933 21.8697624,103.119196 21.8697624,100.617292 C21.8697624,98.1153871 23.7042857,96.0886505 25.9651283,96.0886505 C28.2278999,96.0886505 30.0604941,98.1153871 30.0604941,100.617292" id="Fill-2" fill="#3A807B"></path>
                    <path d="M81.7840196,82.9119532 L65.8115141,100.617292 M87.6907602,89.9929249 L71.7182547,107.700203" id="Stroke-3" stroke="#3A807B" stroke-width="4" stroke-linecap="round"></path>
                    <path d="M36.0463256,44.3729258 L47.5145074,44.3729258 C48.656503,44.3729258 49.5284321,44.5920848 50.1283655,45.0265241 C50.728299,45.4609633 51.0292303,46.0544384 51.0292303,46.8030703 C51.0292303,47.4702448 50.7900285,48.0346279 50.3154831,48.4981591 C49.8390086,48.9597508 49.1175451,49.1905466 48.1510928,49.1905466 L31.9837536,49.1905466 C30.884197,49.1905466 30.0277003,48.9093248 29.4123345,48.3449417 C28.7969686,47.7805586 28.4902502,47.1153235 28.4902502,46.3531153 C28.4902502,45.8643712 28.687013,45.2146518 29.0824675,44.4039571 C29.4798511,43.5952019 29.9100285,42.9571193 30.3787868,42.4955276 C32.3271239,40.61619 34.0844853,39.0083769 35.6508711,37.6682095 C37.2191859,36.328042 38.3380329,35.4455873 39.0131992,35.0247243 C40.2130662,34.2353637 41.2123123,33.4421242 42.0109376,32.6469452 C42.8095629,31.8498268 43.4172125,31.0333137 43.8338866,30.1954666 C44.2524897,29.3614985 44.4608267,28.5411065 44.4608267,27.7381697 C44.4608267,26.8673517 44.2370573,26.0876885 43.7914476,25.4011193 C43.3439088,24.7126107 42.7362591,24.1792589 41.9665695,23.7991246 C41.198809,23.4170508 40.3596737,23.2269837 39.4510928,23.2269837 C37.5336205,23.2269837 36.0251061,24.0085864 34.9274786,25.5737313 C34.7808711,25.7773747 34.5358822,26.3359395 34.1905828,27.2474861 C33.8472125,28.1609722 33.4594742,28.8611175 33.0254387,29.3498617 C32.5952613,29.8405453 31.960605,30.0849174 31.1272569,30.0849174 C30.3942192,30.0849174 29.7865695,29.8618794 29.3023788,29.4119244 C28.8201172,28.9619695 28.5789864,28.3490999 28.5789864,27.575255 C28.5789864,26.6346164 28.8046848,25.6551887 29.2599398,24.6350323 C29.7132658,23.6148758 30.3903611,22.6878135 31.2912258,21.8577243 C32.1920906,21.0295745 33.3340862,20.358521 34.7172125,19.8465033 C36.102268,19.3383646 37.7226671,19.0823557 39.584197,19.0823557 C41.8238201,19.0823557 43.7355052,19.4101246 45.3173234,20.0617835 C46.3416471,20.4962227 47.2425119,21.0974556 48.0179886,21.8577243 C48.7953944,22.6199324 49.3991859,23.5004476 49.8312924,24.5031489 C50.2633988,25.5019713 50.479452,26.5415223 50.479452,27.6140442 C50.479452,29.3013752 50.0280551,30.8354887 49.1291194,32.2163849 C48.2282547,33.5992205 47.3080995,34.6814397 46.3705828,35.4630424 C45.4349952,36.2465846 43.8647513,37.4742634 41.6598511,39.1480181 C39.4549509,40.8217729 37.9425784,42.1212117 37.1227336,43.0463345 C36.7716471,43.4148321 36.4128445,43.8570292 36.0463256,44.3729258" id="Fill-4" fill="#3A807B"></path>
                    <path d="M68.4928888,46.5974874 L68.4928888,42.8019624 L57.4645296,42.8019624 C56.073687,42.8019624 55.0300729,42.5091038 54.3356161,41.9233867 C53.6392303,41.3396089 53.2920019,40.5424905 53.2920019,39.5359103 C53.2920019,39.277962 53.3421571,39.0141953 53.4443966,38.7504286 C53.5485651,38.4847225 53.7009598,38.2054401 53.9073678,37.9125815 C54.1118467,37.6216624 54.3240418,37.3385011 54.5439531,37.0650371 C54.7638644,36.7935126 55.0339309,36.4618648 55.3560817,36.0662148 L66.9998068,21.5939576 C67.7598511,20.6416823 68.3867913,19.9492947 68.8767691,19.5206739 C69.368676,19.0939925 69.9570352,18.8767729 70.6457048,18.8767729 C72.8718245,18.8767729 73.9848844,20.0617835 73.9848844,22.4298652 L73.9848844,38.2287137 L74.9301172,38.2287137 C76.0566804,38.2287137 76.9614032,38.3722338 77.6423567,38.659274 C78.3233101,38.9443747 78.6647513,39.5688811 78.6647513,40.5347327 C78.6647513,41.3260327 78.3850396,41.9020526 77.8294742,42.2608529 C77.2719797,42.6215926 76.4367026,42.8019624 75.3255717,42.8019624 L73.9848844,42.8019624 L73.9848844,46.5974874 C73.9848844,47.6467357 73.7360374,48.426399 73.2383434,48.9345378 C72.7406494,49.4465555 72.0731992,49.7006248 71.2398511,49.7006248 C70.4180773,49.7006248 69.7564143,49.4387976 69.2510041,48.9170826 C68.7455939,48.3914887 68.4928888,47.6195833 68.4928888,46.5974874 L68.4928888,46.5974874 Z M59.0463478,38.2287137 L68.4928888,38.2287137 L68.4928888,26.3708498 L59.0463478,38.2287137 L59.0463478,38.2287137 Z" id="Fill-5" fill="#3A807B"></path>
                    <path d="M89.5600063,22.4298652 L89.5600063,31.0022824 L103.640117,31.0022824 L103.640117,22.4298652 C103.640117,21.2060654 103.93719,20.2867609 104.529408,19.6758308 C105.121625,19.0610217 105.902889,18.7565263 106.869341,18.7565263 C107.851226,18.7565263 108.644064,19.0590822 109.253643,19.664194 C109.861292,20.2693058 110.164153,21.1924892 110.164153,22.4298652 L110.164153,46.0078913 C110.164153,47.2452673 109.857434,48.1703902 109.242068,48.7813204 C108.626703,49.3961295 107.835793,49.7006248 106.869341,49.7006248 C105.887456,49.7006248 105.104264,49.3922506 104.517833,48.7735625 C103.933332,48.152935 103.640117,47.2316911 103.640117,46.0078913 L103.640117,35.9420893 L89.5600063,35.9420893 L89.5600063,46.0078913 C89.5600063,47.2452673 89.2513589,48.1703902 88.635993,48.7813204 C88.0206272,49.3961295 87.2316471,49.7006248 86.2632658,49.7006248 C85.2833101,49.7006248 84.4981882,49.3922506 83.913687,48.7735625 C83.3272569,48.152935 83.0340418,47.2316911 83.0340418,46.0078913 L83.0340418,22.4298652 C83.0340418,21.2060654 83.3233988,20.2867609 83.9021128,19.6758308 C84.4808267,19.0610217 85.2678777,18.7565263 86.2632658,18.7565263 C87.2451505,18.7565263 88.0399176,19.0590822 88.6475673,19.664194 C89.255217,20.2693058 89.5600063,21.1924892 89.5600063,22.4298652" id="Fill-6" fill="#3A807B"></path>
                </g>
            </g>
        </g>
    </g>
</svg>
